<svg width="380" height="146" viewBox="0 0 380 146" fill="none" xmlns="http://www.w3.org/2000/svg">
<path fill-rule="evenodd" clip-rule="evenodd" d="M264.222 144.98C263.231 144.98 262.428 144.205 262.428 143.249V124.18C262.428 123.224 263.231 122.449 264.222 122.449C265.213 122.449 266.016 123.224 266.016 124.18V143.249C266.016 144.205 265.213 144.98 264.222 144.98ZM264.252 118.694C263.553 118.694 262.95 118.464 262.443 118.005C261.946 117.545 261.698 116.992 261.698 116.347C261.698 115.702 261.946 115.149 262.443 114.689C262.95 114.23 263.553 114 264.252 114C264.952 114 265.55 114.23 266.047 114.689C266.553 115.149 266.807 115.702 266.807 116.347C266.807 116.992 266.553 117.545 266.047 118.005C265.55 118.464 264.952 118.694 264.252 118.694ZM308.367 143.563C309.958 144.531 311.808 145.015 313.917 145.015C316.025 145.015 317.87 144.531 319.452 143.563C321.043 142.595 322.28 141.241 323.162 139.5C324.054 137.759 324.5 135.725 324.5 133.398C324.5 131.051 324.054 129.002 323.162 127.252C322.28 125.501 321.043 124.142 319.452 123.174C317.87 122.206 316.025 121.722 313.917 121.722C311.808 121.722 309.958 122.206 308.367 123.174C306.786 124.142 305.549 125.501 304.657 127.252C303.775 129.002 303.334 131.051 303.334 133.398C303.334 135.725 303.775 137.759 304.657 139.5C305.549 141.241 306.786 142.595 308.367 143.563ZM317.87 140.718C316.836 141.51 315.519 141.906 313.917 141.906C312.315 141.906 310.997 141.51 309.963 140.718C308.929 139.925 308.164 138.884 307.667 137.593C307.171 136.302 306.922 134.904 306.922 133.398C306.922 131.892 307.171 130.489 307.667 129.188C308.164 127.887 308.929 126.836 309.963 126.034C310.997 125.232 312.315 124.831 313.917 124.831C315.519 124.831 316.836 125.232 317.87 126.034C318.904 126.836 319.67 127.887 320.166 129.188C320.663 130.489 320.911 131.892 320.911 133.398C320.911 134.904 320.663 136.302 320.166 137.593C319.67 138.884 318.904 139.925 317.87 140.718ZM365.099 143.249V131.426C365.099 130.116 365.357 129.001 365.874 128.082C366.391 127.163 367.096 126.463 367.988 125.984C368.89 125.505 369.914 125.265 371.059 125.265C372.722 125.265 374.029 125.764 374.982 126.762C375.935 127.749 376.412 129.128 376.412 130.898V143.249C376.412 144.205 377.215 144.98 378.206 144.98C379.197 144.98 380 144.205 380 143.249V130.663C380 128.747 379.671 127.163 379.012 125.911C378.353 124.649 377.43 123.711 376.244 123.094C375.058 122.469 373.675 122.156 372.093 122.156C370.329 122.156 368.89 122.508 367.775 123.212C366.694 123.885 365.879 124.77 365.332 125.866C365.3 125.929 365.235 125.97 365.162 125.97C365.06 125.97 364.977 125.889 364.977 125.791V124.121C364.977 123.198 364.201 122.449 363.243 122.449C362.286 122.449 361.51 123.198 361.51 124.121V143.249C361.51 144.205 362.313 144.98 363.304 144.98C364.295 144.98 365.099 144.205 365.099 143.249ZM225.307 124.15C225.307 123.34 224.627 122.683 223.787 122.683H220.32V119.016C220.32 118.06 219.517 117.285 218.526 117.285C217.535 117.285 216.732 118.06 216.732 119.016V122.683H214.724C213.885 122.683 213.204 123.34 213.204 124.15C213.204 124.96 213.885 125.617 214.724 125.617H216.732V139.699C216.732 141.009 217.046 142.095 217.674 142.955C218.313 143.816 219.114 144.456 220.077 144.877C221.05 145.297 222.043 145.508 223.057 145.508C223.726 145.508 224.279 145.459 224.714 145.361C225.307 145.241 225.634 144.673 225.5 144.104L225.14 142.571C225.064 142.246 224.733 142.039 224.395 142.105C224.142 142.144 223.817 142.163 223.422 142.163C222.895 142.163 222.393 142.085 221.917 141.929C221.45 141.762 221.065 141.44 220.761 140.96C220.467 140.471 220.32 139.738 220.32 138.76V125.617H223.787C224.627 125.617 225.307 124.96 225.307 124.15ZM173.339 136.002V124.414C173.339 123.458 174.142 122.683 175.133 122.683C176.124 122.683 176.928 123.458 176.928 124.414V143.483C176.928 144.439 176.124 145.214 175.133 145.214C174.142 145.214 173.339 144.439 173.339 143.483V141.544C173.339 141.465 173.273 141.401 173.191 141.401C173.133 141.401 173.08 141.433 173.055 141.483C172.507 142.592 171.669 143.537 170.541 144.32C169.386 145.112 167.926 145.508 166.162 145.508C164.702 145.508 163.405 145.2 162.269 144.584C161.134 143.958 160.242 143.019 159.593 141.767C158.945 140.506 158.62 138.917 158.62 137V124.414C158.62 123.458 159.423 122.683 160.414 122.683C161.405 122.683 162.209 123.458 162.209 124.414V136.765C162.209 138.408 162.685 139.719 163.638 140.696C164.601 141.674 165.828 142.163 167.318 142.163C168.21 142.163 169.117 141.943 170.04 141.503C170.972 141.063 171.753 140.388 172.381 139.479C173.02 138.569 173.339 137.411 173.339 136.002ZM120.361 117.197C120.361 116.242 119.558 115.467 118.567 115.467C117.576 115.467 116.773 116.242 116.773 117.197V143.777C116.773 144.733 117.576 145.508 118.567 145.508C119.558 145.508 120.361 144.733 120.361 143.777V117.197ZM69.026 146C66.9175 146 65.0674 145.516 63.4759 144.548C61.8945 143.58 60.6578 142.225 59.7657 140.485C58.8838 138.744 58.4429 136.71 58.4429 134.383C58.4429 132.036 58.8838 129.987 59.7657 128.236C60.6578 126.486 61.8945 125.127 63.4759 124.159C65.0674 123.19 66.9175 122.706 69.026 122.706C71.1345 122.706 72.9794 123.19 74.5608 124.159C76.1523 125.127 77.389 126.486 78.271 128.236C79.163 129.987 79.6091 132.036 79.6091 134.383C79.6091 136.71 79.163 138.744 78.271 140.485C77.389 142.225 76.1523 143.58 74.5608 144.548C72.9794 145.516 71.1345 146 69.026 146ZM69.026 142.89C70.6276 142.89 71.9454 142.494 72.9794 141.702C74.0134 140.91 74.7787 139.869 75.2755 138.578C75.7722 137.287 76.0205 135.888 76.0205 134.383C76.0205 132.877 75.7722 131.473 75.2755 130.173C74.7787 128.872 74.0134 127.821 72.9794 127.019C71.9454 126.217 70.6276 125.816 69.026 125.816C67.4243 125.816 66.1065 126.217 65.0725 127.019C64.0385 127.821 63.2732 128.872 62.7765 130.173C62.2797 131.473 62.0314 132.877 62.0314 134.383C62.0314 135.888 62.2797 137.287 62.7765 138.578C63.2732 139.869 64.0385 140.91 65.0725 141.702C66.1065 142.494 67.4243 142.89 69.026 142.89ZM17.6086 120.888C18.023 121.726 18.7882 122.449 19.7508 122.449C20.8238 122.449 21.7121 121.577 21.4058 120.585C21.1633 119.799 20.7789 119.066 20.2526 118.386C19.3403 117.193 18.1036 116.254 16.5425 115.569C14.9814 114.875 13.1972 114.528 11.1901 114.528C9.20324 114.528 7.40391 114.88 5.79212 115.584C4.19046 116.278 2.91319 117.256 1.96031 118.518C1.01756 119.769 0.546189 121.236 0.546189 122.918C0.546189 124.942 1.25578 126.58 2.67497 127.832C4.09416 129.084 6.02021 130.047 8.4531 130.722L12.2849 131.778C13.3797 132.071 14.3985 132.414 15.3412 132.805C16.284 133.196 17.0443 133.704 17.6221 134.33C18.1999 134.956 18.4888 135.768 18.4888 136.765C18.4888 137.861 18.1543 138.819 17.4852 139.64C16.8162 140.452 15.9089 141.088 14.7634 141.547C13.6179 141.997 12.3255 142.222 10.886 142.222C9.64927 142.222 8.49365 142.046 7.41912 141.694C6.35473 141.332 5.4728 140.784 4.77335 140.051C4.45785 139.711 4.20394 139.33 4.01161 138.908C3.60339 138.012 2.80837 137.235 1.79392 137.235C0.659555 137.235 -0.2614 138.176 0.0675816 139.223C0.333229 140.069 0.730986 140.848 1.26085 141.562C2.19346 142.804 3.47073 143.772 5.09266 144.466C6.72473 145.161 8.65584 145.508 10.886 145.508C13.2783 145.508 15.3108 145.121 16.9834 144.349C18.6662 143.576 19.9435 142.535 20.8153 141.224C21.6972 139.914 22.1381 138.447 22.1381 136.824C22.1381 135.416 21.8391 134.228 21.241 133.259C20.6429 132.291 19.8826 131.499 18.9602 130.883C18.0478 130.257 17.0899 129.763 16.0863 129.402C15.0929 129.04 14.1907 128.756 13.3797 128.551L10.2169 127.729C9.63914 127.583 9.00557 127.392 8.31625 127.157C7.62693 126.913 6.96802 126.605 6.33952 126.233C5.71102 125.852 5.19403 125.378 4.78855 124.81C4.39321 124.233 4.19553 123.544 4.19553 122.742C4.19553 121.784 4.47937 120.928 5.04705 120.175C5.62486 119.422 6.42569 118.831 7.44953 118.4C8.48351 117.97 9.68982 117.755 11.0685 117.755C12.954 117.755 14.5455 118.166 15.843 118.987C16.644 119.494 17.2325 120.128 17.6086 120.888Z" fill="#082F63"/>
<path fill-rule="evenodd" clip-rule="evenodd" d="M313.364 90C310.569 90 308.623 87.2158 309.579 84.583L338.782 4.12988C339.682 1.65039 342.034 0 344.666 0C347.299 0 349.65 1.65039 350.55 4.12988L379.754 84.583C380.71 87.2158 378.764 90 375.968 90C374.264 90 372.744 88.925 372.173 87.3159L365.667 68.9839C364.393 65.3962 361.005 63 357.205 63H332.127C328.328 63 324.939 65.3962 323.666 68.9839L317.16 87.3159C316.589 88.925 315.069 90 313.364 90ZM356.723 43.7839C358.802 49.6433 354.467 55.8 348.261 55.8H341.071C334.866 55.8 330.53 49.6433 332.61 43.7839L344.257 10.9685C344.318 10.7947 344.482 10.6787 344.666 10.6787C344.85 10.6787 345.014 10.7947 345.076 10.9685L356.723 43.7839ZM12.0091 7.68579C9.59734 7.68579 7.6422 9.65137 7.6422 12.0759C7.6422 14.5005 9.59734 16.4661 12.0091 16.4661H34.3245C36.4348 16.4661 38.1455 18.1858 38.1455 20.3074C38.1455 22.429 36.4348 24.1487 34.3245 24.1487H12.0091C5.37671 24.1487 0 18.7434 0 12.0759C0 5.4082 5.37671 0.00317383 12.0091 0.00317383H49.1607C61.2196 0.00317383 70.9954 9.83081 70.9954 21.9536V46.1775C70.9954 48.2988 69.2846 50.0188 67.1743 50.0188C65.064 50.0188 63.3532 48.2988 63.3532 46.1775V21.9536C63.3532 14.0737 56.999 7.68579 49.1607 7.68579H12.0091ZM50.7494 16.4661C52.8597 16.4661 54.5705 18.1858 54.5705 20.3074V48.0679C54.5705 51.8594 56.0715 55.4949 58.7423 58.1716L60.4864 59.9199L63.8811 63.3223C65.4988 64.9438 67.6901 65.8545 69.9745 65.8545H74.2379C80.8704 65.8545 86.247 71.2598 86.247 77.9272C86.247 84.5947 80.8703 90 74.2379 90H64.9939C59.3683 90 53.9721 87.7576 49.9882 83.7646L36.9217 70.668C32.8128 66.5496 30.5034 60.9563 30.5034 55.1233V45.0261C30.5034 42.5879 28.5373 40.6113 26.112 40.6113C23.6867 40.6113 21.7206 42.5879 21.7206 45.0261V72.0056C21.7206 81.9436 13.7068 90 3.8211 90C1.71079 90 0 88.28 0 86.1587C0 84.0371 1.71079 82.3174 3.8211 82.3174C9.48613 82.3174 14.0785 77.7004 14.0785 72.0056V45.0261C14.0785 38.345 19.4661 32.9287 26.112 32.9287C32.7579 32.9287 38.1455 38.345 38.1455 45.0261V55.1233C38.1455 58.9148 39.6466 62.5503 42.3174 65.2273L55.3839 78.324C57.9353 80.8813 61.3911 82.3174 64.9939 82.3174H74.2379C76.6497 82.3174 78.605 80.3518 78.605 77.9272C78.605 75.5027 76.6497 73.5371 74.2379 73.5371H69.9745C65.6672 73.5371 61.5356 71.8203 58.4853 68.7629L53.3466 63.6123C49.2376 59.4939 46.9283 53.9009 46.9283 48.0679V20.3074C46.9283 18.1858 48.6391 16.4661 50.7494 16.4661ZM123.484 90C121.249 90 119.437 88.1604 119.437 85.8914V4.11206C119.437 1.84277 121.249 0.00317383 123.484 0.00317383C125.719 0.00317383 127.531 1.84277 127.531 4.11206V27.2576C127.531 34.9944 133.709 41.2664 141.33 41.2664H164.028C171.649 41.2664 177.827 34.9944 177.827 27.2576V4.11206C177.827 1.84277 179.639 0.00317383 181.874 0.00317383C184.109 0.00317383 185.921 1.84277 185.921 4.11206V85.8914C185.921 88.1604 184.109 90 181.874 90C179.639 90 177.827 88.1604 177.827 85.8914V62.6577C177.827 54.9209 171.649 48.6489 164.028 48.6489H141.33C133.709 48.6489 127.531 54.9209 127.531 62.6577V85.8914C127.531 88.1604 125.719 90 123.484 90ZM224.252 75.9912C224.252 83.728 230.43 90 238.051 90H272.903C274.911 90 276.539 88.3474 276.539 86.3088C276.539 84.27 274.911 82.6174 272.903 82.6174H246.145C238.524 82.6174 232.346 76.3455 232.346 68.6086V62.6577C232.346 54.9209 238.524 48.6489 246.145 48.6489H269.311C271.319 48.6489 272.946 46.9963 272.946 44.9575C272.946 42.9189 271.319 41.2664 269.311 41.2664H246.145C238.524 41.2664 232.346 34.9944 232.346 27.2576V21.3948C232.346 13.6577 238.524 7.38574 246.145 7.38574H272.037C274.045 7.38574 275.673 5.73315 275.673 3.69458C275.673 1.65576 274.045 0.00317383 272.037 0.00317383H238.051C230.43 0.00317383 224.252 6.27539 224.252 14.0122V75.9912Z" fill="#082F63"/>
</svg>
