<svg width="200" height="200" viewBox="0 0 200 200" fill="none" xmlns="http://www.w3.org/2000/svg">
<path d="M43.9598 33.1754C39.6159 33.1754 36.0945 36.6953 36.0945 41.0372C36.0945 45.3791 39.6159 48.899 43.9598 48.899H84.1521C87.953 48.899 91.034 51.9787 91.034 55.778C91.034 59.5773 87.953 62.6569 84.1521 62.6569H43.9598C32.0141 62.6569 22.3301 52.9772 22.3301 41.0372C22.3301 29.0967 32.0141 19.4175 43.9598 19.4175H110.874C132.593 19.4175 150.2 37.0167 150.2 58.726V102.106C150.2 105.905 147.119 108.985 143.318 108.985C139.517 108.985 136.436 105.905 136.436 102.106V58.726C136.436 44.6148 124.991 33.1754 110.874 33.1754H43.9598Z" fill="#082F63"/>
<path d="M113.735 48.899C117.536 48.899 120.617 51.9787 120.617 55.778V105.491C120.617 112.281 123.321 118.791 128.131 123.585L131.272 126.716L137.387 132.808C140.3 135.712 144.247 137.343 148.361 137.343H156.04C167.986 137.343 177.67 147.023 177.67 158.963C177.67 170.903 167.986 180.583 156.04 180.583H139.391C129.258 180.583 119.539 176.567 112.364 169.416L88.8299 145.963C81.4293 138.588 77.2699 128.571 77.2699 118.126V100.044C77.2699 95.6776 73.7287 92.138 69.3605 92.138C64.9923 92.138 61.4511 95.6776 61.4511 100.044V148.358C61.4511 166.155 47.0174 180.583 29.2123 180.583C25.4114 180.583 22.3301 177.502 22.3301 173.704C22.3301 169.904 25.4114 166.825 29.2123 166.825C39.4156 166.825 47.6869 158.557 47.6869 148.358V100.044C47.6869 88.0794 57.3905 78.3801 69.3605 78.3801C81.3305 78.3801 91.034 88.0794 91.034 100.044V118.126C91.034 124.916 93.7378 131.426 98.5481 136.22L122.082 159.673C126.678 164.253 132.902 166.825 139.391 166.825H156.04C160.384 166.825 163.906 163.305 163.906 158.963C163.906 154.621 160.384 151.101 156.04 151.101H148.361C140.603 151.101 133.162 148.027 127.668 142.552L118.413 133.328C111.012 125.953 106.853 115.937 106.853 105.491V55.778C106.853 51.9787 109.934 48.899 113.735 48.899Z" fill="#082F63"/>
</svg>
